<svg width="22" height="22" viewBox="0 0 22 22" fill="none" xmlns="http://www.w3.org/2000/svg">
<path d="M16.3309 20.2377C15.9047 20.6472 15.3558 20.9052 14.7686 20.972C14.1815 21.0387 13.5887 20.9105 13.0815 20.6071C12.5451 20.362 11.9622 20.2352 11.3725 20.2352C10.7827 20.2352 10.1998 20.362 9.66337 20.6071C8.14419 21.2615 7.3424 21.0715 6.43512 20.2377C1.28678 14.9289 2.04954 6.84439 7.891 6.54887C9.31523 6.62275 10.3069 7.32988 11.1404 7.39321C12.3852 7.13991 13.5774 6.41167 14.9067 6.50665C15.6107 6.52424 16.301 6.70496 16.9234 7.0346C17.5458 7.36424 18.0833 7.83382 18.4936 8.40641C17.8055 8.79274 17.2408 9.36628 16.8652 10.0605C16.4896 10.7548 16.3184 11.5413 16.3714 12.329C16.4244 13.1166 16.6995 13.8731 17.1647 14.5107C17.6299 15.1484 18.2663 15.641 19 15.9316C18.4655 17.5645 17.5465 19.045 16.3203 20.2483L16.3309 20.2377ZM11.0349 6.48554C10.9899 5.37378 11.3748 4.28744 12.1096 3.45214C12.8444 2.61684 13.8725 2.09679 14.9805 2C15.2864 4.72299 12.5118 6.7494 11.0349 6.48554Z" fill="black"/>
</svg>
