<svg width="43" height="43" viewBox="0 0 43 43" fill="none" xmlns="http://www.w3.org/2000/svg">
<rect x="1" y="1" width="41" height="41" rx="20.5" fill="#E6F1E7"/>
<rect x="1" y="1" width="41" height="41" rx="20.5" stroke="#00720D" stroke-width="2"/>
<path d="M21.5 24.5002L18.5 21.5002M21.5 24.5002C22.8968 23.969 24.2369 23.299 25.5 22.5002M21.5 24.5002V29.5002C21.5 29.5002 24.53 28.9502 25.5 27.5002C26.58 25.8802 25.5 22.5002 25.5 22.5002M18.5 21.5002C19.0321 20.1197 19.7022 18.7963 20.5 17.5502C21.6652 15.6872 23.2876 14.1533 25.213 13.0943C27.1384 12.0354 29.3027 11.4866 31.5 11.5002C31.5 14.2202 30.72 19.0002 25.5 22.5002M18.5 21.5002H13.5C13.5 21.5002 14.05 18.4702 15.5 17.5002C17.12 16.4202 20.5 17.5002 20.5 17.5002M14 26.0002C12.5 27.2602 12 31.0002 12 31.0002C12 31.0002 15.74 30.5002 17 29.0002C17.71 28.1602 17.7 26.8702 16.91 26.0902C16.5213 25.7193 16.0093 25.5049 15.4722 25.4883C14.9352 25.4717 14.4109 25.654 14 26.0002Z" stroke="#00720D" stroke-width="2" stroke-linecap="round" stroke-linejoin="round"/>
</svg>
