<svg xmlns="http://www.w3.org/2000/svg" width="202" height="202" viewBox="0 0 202 202">
  <g id="Group_47185" data-name="Group 47185" transform="translate(-96 -325)">
    <path id="Path_431" data-name="Path 431" d="M101,0A101,101,0,1,1,0,101,101,101,0,0,1,101,0Z" transform="translate(96 325)" fill="none" opacity="0.25"/>
    <path id="Path_413" data-name="Path 413" d="M110.41,100.122a23.2,23.2,0,0,0-13.981-20.4L77.5,72.122,74.23,66.746V63.614a26.182,26.182,0,0,0,5.028-8.18A40.764,40.764,0,0,0,80.9,48.9h.793a3.867,3.867,0,0,0,3.693-2.881h.174l1.934.213h.271a2.823,2.823,0,0,0,1.934-.7,3.113,3.113,0,0,0,.986-1.992l.677-8.083a3.055,3.055,0,0,0-2.688-3.326l-1.934-.193h-.116a3.867,3.867,0,0,0-2.2-2.707v-.271c2.127-8.624-.793-13.381-4.66-19.4C75.6,2.7,64.02-.353,49.653,1.561a13.014,13.014,0,0,0-9.011,4.351,7.561,7.561,0,0,0-1.373,2.959,6.884,6.884,0,0,0-4.119,2.2c-3.867,4.273-3.713,13.42-2.939,18.351a3.867,3.867,0,0,0-1.8,2.514h-.155l-1.934.193a3.075,3.075,0,0,0-2.707,3.326l.735,8.083a3.094,3.094,0,0,0,1.2,2.088,2.862,2.862,0,0,0,1.934.677h.29l1.934-.193h0a3.693,3.693,0,0,0,1.257,1.934,3.867,3.867,0,0,0,2.32.909h.657a37.243,37.243,0,0,0,1.644,6.517,25.931,25.931,0,0,0,5.028,8.2v3.075l-3.461,5.472-18,7.271A24.307,24.307,0,0,0,6.57,100.76L5.7,122.824a1.934,1.934,0,0,0,1.934,1.934H109.346a1.934,1.934,0,0,0,1.934-1.934ZM56.9,76.685c-3.577-2.939-7.425-6.343-9.282-8.276a17.5,17.5,0,0,0,21.271.193c-1.934,1.934-5.8,5.26-9.3,8.083Zm6.536,1.934a93.359,93.359,0,0,0,8.74-7.735l1.934,3.036-4.8,11.1a36.74,36.74,0,0,0-5.878-6.439Zm18.254-33.53-1.7-.116h0l1.1-12.376h1.721ZM87.5,35.9l-.541,6.459-.87-.1h-.232l.541-6.459h0ZM37.973,13.7a3.249,3.249,0,0,1,2.881-1.1,2.024,2.024,0,0,0,2.166-2.088c0-.406-.193-4.119,7.193-5.1,12.666-1.7,23.03.735,26.414,6.188s5.8,9.417,4.08,16.436a3.486,3.486,0,0,1-.155.754,3.867,3.867,0,0,0-2.243,1.18,26.859,26.859,0,0,0-2.088-6.091c-3.345-6.227-8.354-6.052-12.028-5.917H63.3a34.593,34.593,0,0,0-3.577.348c-3.867.522-9.146,1.218-14.251-.928a1.934,1.934,0,0,0-1.818.174A17.887,17.887,0,0,0,36.5,28.73h-.425C35.286,23.915,35.4,16.47,37.973,13.7ZM30.142,42.362,29.6,35.9l.909-.1h0l.6,6.478a.773.773,0,0,0-.213,0Zm5.144,2.727-1.18-12.337,1.721-.193,1.2,12.376Zm4.351,2.669.329-.329a3.867,3.867,0,0,0,.87-2.8l-.909-9.92c0-1.392.116-2.8.174-4.1a13.362,13.362,0,0,1,4.854-9.2,31.249,31.249,0,0,0,15.18.793c1.257-.174,2.34-.309,3.171-.348h.986c3.519-.116,6.285-.232,8.489,3.867,1.934,3.674,3.171,12.414,3.5,17.191l-.155,1.74a3.655,3.655,0,0,0,.425,2.127h0a2.515,2.515,0,0,0-.193.483c-1.218,5.066-8.7,8.16-13.014,9.378a4.854,4.854,0,1,0,.329,3.867,33.259,33.259,0,0,0,11.6-5.356,28.58,28.58,0,0,1-8.1,9.978,13.691,13.691,0,0,1-17.249,0,27.458,27.458,0,0,1-8.566-11.08,34.072,34.072,0,0,1-1.682-6.285Zm20.4,11.254a.986.986,0,1,1-.986-.986.986.986,0,0,1,.986.986ZM44.567,70.846a87.132,87.132,0,0,0,8.373,7.5,28.445,28.445,0,0,0-5.8,5.8L42.6,73.824ZM10.4,100.953a20.188,20.188,0,0,1,4.138-11.6A20.42,20.42,0,0,1,22.6,83.009L39.4,76.2l4.757,10.771a2.843,2.843,0,0,0,2.166,2.166,3.558,3.558,0,0,0,.638,0,2.9,2.9,0,0,0,2.494-1.431,19.337,19.337,0,0,1,1.934-2.572L54.1,88.094l-3.345,32.8H9.645ZM54.623,120.89l3.229-33.163a1.934,1.934,0,0,0-.483-1.489l-3.326-3.713a29.372,29.372,0,0,1,2.572-1.934h3.171c.5.406,1.315,1.083,2.243,1.934l-2.939,3.732a1.934,1.934,0,0,0-.406,1.392l3.345,33.24Zm11.215,0L62.609,88.017l2.108-2.669a26.01,26.01,0,0,1,2.32,3.249,2.862,2.862,0,0,0,2.494,1.45,3.6,3.6,0,0,0,.561-.1,2.843,2.843,0,0,0,2.166-2.185l4.873-11.6,17.732,7.116a19,19,0,0,1,11.6,16.881l.87,20.729Z" transform="translate(138.3 363)" opacity="0.04"/>
  </g>
</svg>
