<svg xmlns="http://www.w3.org/2000/svg" width="13.199" height="16.5" viewBox="0 0 13.199 16.5">
  <path id="f70fcef65b937eca7d54ada48defab6b" d="M14.22,10.08a1.98,1.98,0,0,1,1.98,1.98v.66c0,2.6-2.455,5.28-6.6,5.28S3,15.322,3,12.72v-.66a1.98,1.98,0,0,1,1.98-1.98Zm0,1.32H4.98a.66.66,0,0,0-.66.66v.66c0,1.9,1.89,3.96,5.28,3.96s5.28-2.062,5.28-3.96v-.66A.66.66,0,0,0,14.22,11.4ZM9.6,1.5A3.63,3.63,0,1,1,5.97,5.13,3.63,3.63,0,0,1,9.6,1.5Zm0,1.32a2.31,2.31,0,1,0,2.31,2.31A2.31,2.31,0,0,0,9.6,2.82Z" transform="translate(-3 -1.5)" fill="#212121"/>
</svg>
