<svg xmlns="http://www.w3.org/2000/svg" width="18.001" height="21.346" viewBox="0 0 18.001 21.346">
  <path id="_28c9e58ff76e0e37ca962968d85a03a3" data-name="28c9e58ff76e0e37ca962968d85a03a3" d="M10.744,4.749h4.5a1.062,1.062,0,0,0,1.124-1.124A1.062,1.062,0,0,0,15.242,2.5h-4.5A1.062,1.062,0,0,0,9.62,3.624,1.062,1.062,0,0,0,10.744,4.749Zm9.332,4.61,1.012-1.012a1.113,1.113,0,1,0-1.574-1.574L18.5,7.784a8.794,8.794,0,0,0-11.018,0L6.472,6.772A1.113,1.113,0,0,0,4.9,8.347L5.91,9.358A8.974,8.974,0,1,0,20.076,20.377,8.794,8.794,0,0,0,20.076,9.358ZM14.9,15.992a2.319,2.319,0,0,1-1.911,1.124,2.255,2.255,0,0,1-2.249-2.249,2.176,2.176,0,0,1,1.124-1.911V10.37a1.124,1.124,0,1,1,2.249,0v2.586A2.094,2.094,0,0,1,14.9,15.992Z" transform="translate(-4.015 -2.5)" fill="#121212"/>
</svg>
