<svg id="_3218550140006f5e7412f1af7d5b261a" data-name="3218550140006f5e7412f1af7d5b261a" xmlns="http://www.w3.org/2000/svg" width="24" height="24" viewBox="0 0 24 24">
  <path id="Path_306" data-name="Path 306" d="M0,0H24V24H0Z" fill="none"/>
  <path id="Path_307" data-name="Path 307" d="M14.59,2.59A2.006,2.006,0,0,0,13.17,2H6A2.006,2.006,0,0,0,4,4V20a2,2,0,0,0,1.99,2H18a2.006,2.006,0,0,0,2-2V8.83a1.966,1.966,0,0,0-.59-1.41L14.59,2.59ZM15,18H9a1,1,0,0,1,0-2h6a1,1,0,0,1,0,2Zm0-4H9a1,1,0,0,1,0-2h6a1,1,0,0,1,0,2ZM13,8V3.5L18.5,9H14A1,1,0,0,1,13,8Z"/>
</svg>
