<svg xmlns="http://www.w3.org/2000/svg" width="25.779" height="25.641" viewBox="0 0 25.779 25.641">
  <g id="Group_47213" data-name="Group 47213" transform="translate(-321.6 -737.1)">
    <path id="ba70f009a9422c0e342ca73729d80e85" d="M12.722.312a5.476,5.476,0,0,0-5.47,5.47.4.4,0,1,0,.8,0A4.678,4.678,0,1,1,8.57,7.911a.4.4,0,1,0-.715.365,5.466,5.466,0,0,0,10.2-3.689,4.662,4.662,0,1,1-2.1,7.133c-.035-.047-.071-.1-.1-.145a.4.4,0,1,0-.661.454c.039.057.077.114.119.17a5.47,5.47,0,1,0,4.4-8.724,5.105,5.105,0,0,0-1.835.327A5.405,5.405,0,0,0,12.722.312Zm0,2.537a.4.4,0,0,0-.4.423v.162a1.436,1.436,0,0,0,.386,2.8.639.639,0,0,1,.047,1.275.619.619,0,0,1-.658-.48.4.4,0,1,0-.777.208,1.435,1.435,0,0,0,1,1v.07a.4.4,0,1,0,.8,0V8.235a1.444,1.444,0,0,0-.385-2.8.645.645,0,0,1-.052-1.286.613.613,0,0,1,.663.491.4.4,0,1,0,.777-.21,1.435,1.435,0,0,0-1-1V3.271A.389.389,0,0,0,12.721,2.848ZM20.046,6.1a.415.415,0,0,0-.4.447V6.71a1.436,1.436,0,0,0,.386,2.8.639.639,0,0,1,.047,1.275.619.619,0,0,1-.658-.48.4.4,0,1,0-.777.208,1.435,1.435,0,0,0,1,1v.07a.4.4,0,1,0,.8,0v-.079a1.444,1.444,0,0,0-.385-2.8.645.645,0,0,1-.052-1.286.613.613,0,0,1,.663.491.4.4,0,1,0,.777-.21,1.435,1.435,0,0,0-1-1V6.547A.4.4,0,0,0,20.046,6.1ZM4.674,11.862H1.687A1.431,1.431,0,0,0,.264,13.287V21.3a1.431,1.431,0,0,0,1.424,1.424H4.674A1.432,1.432,0,0,0,6.1,21.3V14.479a24.639,24.639,0,0,1,2.648-1.116,2.174,2.174,0,0,1,1.2-.006l3.971,1.321a1.692,1.692,0,0,1-.594,3.294.4.4,0,1,0,.068.8,2.572,2.572,0,0,0,2.453-1.935l6.436-.874c1.113-.187,1.662.149,1.964.758a1.609,1.609,0,0,1-.64,2.027L15.4,24a2.128,2.128,0,0,1-2.2-.012l-5.471-3.9a.4.4,0,1,0-.466.655l5.508,3.928a2.918,2.918,0,0,0,3.059.01l8.226-5.269a2.618,2.618,0,0,0,.915-3.031,2.438,2.438,0,0,0-2.83-1.209l-6.294.855a2.5,2.5,0,0,0-1.676-2.112c-1.346-.447-2.718-.905-4.056-1.348a2.636,2.636,0,0,0-1.659.037A24.054,24.054,0,0,0,6.1,13.6v-.309A1.432,1.432,0,0,0,4.674,11.862Zm-2.987.8H4.674a.611.611,0,0,1,.62.62V21.3a.611.611,0,0,1-.62.62H1.687a.611.611,0,0,1-.62-.62V13.287A.611.611,0,0,1,1.687,12.667Z" transform="translate(321.736 737.188)" fill="#fff" stroke="#fff" stroke-width="0.8"/>
  </g>
</svg>
