<svg width="25" height="25" viewBox="0 0 25 25" fill="none" xmlns="http://www.w3.org/2000/svg">
<path d="M2.5 12V5.5C2.5 4.96957 2.71071 4.46086 3.08579 4.08579C3.46086 3.71071 3.96957 3.5 4.5 3.5H8.4C9.1 3.5 9.7 3.8 10.1 4.4L10.9 5.6C11.3 6.2 11.9 6.5 12.6 6.5H20.5C21.0304 6.5 21.5391 6.71071 21.9142 7.08579C22.2893 7.46086 22.5 7.96957 22.5 8.5V18.5C22.5 19.0304 22.2893 19.5391 21.9142 19.9142C21.5391 20.2893 21.0304 20.5 20.5 20.5H11M11.878 14.126C12.0752 13.9288 12.2317 13.6946 12.3385 13.4369C12.4452 13.1792 12.5001 12.9029 12.5001 12.624C12.5001 12.3451 12.4452 12.0688 12.3385 11.8111C12.2317 11.5534 12.0752 11.3192 11.878 11.122C11.6808 10.9248 11.4466 10.7683 11.1889 10.6615C10.9312 10.5548 10.6549 10.4999 10.376 10.4999C10.0971 10.4999 9.82084 10.5548 9.56312 10.6615C9.30541 10.7683 9.07125 10.9248 8.874 11.122L3.864 16.134C3.62625 16.3716 3.45222 16.6653 3.358 16.988L2.521 19.858C2.4959 19.944 2.4944 20.0353 2.51664 20.1221C2.53889 20.2089 2.58407 20.2882 2.64745 20.3516C2.71083 20.4149 2.79008 20.4601 2.87691 20.4824C2.96374 20.5046 3.05495 20.5031 3.141 20.478L6.011 19.641C6.33367 19.5468 6.62738 19.3728 6.865 19.135L11.878 14.126Z" stroke="#00720D" stroke-width="2" stroke-linecap="round" stroke-linejoin="round"/>
</svg>
