<svg width="22" height="22" viewBox="0 0 22 22" fill="none" xmlns="http://www.w3.org/2000/svg">
<g clip-path="url(#clip0_503_430)">
<path d="M17.6663 3.00001C18.5462 2.99806 19.3921 3.33459 20.0237 3.93785C20.3317 4.23157 20.5768 4.58308 20.7445 4.97162C20.9121 5.36016 20.999 5.77785 21 6.20001V6.5237L11 11.6929L1 6.5237V6.20001C1.00097 5.77785 1.08787 5.36016 1.25554 4.97162C1.42322 4.58308 1.66828 4.23157 1.97625 3.93785C2.60786 3.33459 3.45379 2.99806 4.33375 3.00001H17.6663ZM21 15.8C20.999 16.2222 20.9121 16.6399 20.7445 17.0284C20.5768 17.4169 20.3317 17.7684 20.0237 18.0622C19.3921 18.6654 18.5462 19.002 17.6663 19H4.33375C3.45379 19.002 2.60786 18.6654 1.97625 18.0622C1.66828 17.7684 1.42322 17.4169 1.25554 17.0284C1.08787 16.6399 1.00097 16.2222 1 15.8L1 8.33909L10.605 13.304C10.7269 13.3668 10.8624 13.3995 11 13.3995C11.1376 13.3995 11.2731 13.3668 11.395 13.304L21 8.33909V15.8Z" fill="black"/>
</g>
<defs>
<clipPath id="clip0_503_430">
<rect width="20" height="16" fill="white" transform="translate(1 3)"/>
</clipPath>
</defs>
</svg>
