<svg width="25" height="31" viewBox="0 0 25 31" fill="none" xmlns="http://www.w3.org/2000/svg">
<path d="M12.011 0.0440063C8.82662 0.0477116 5.77373 1.31434 3.52203 3.56604C1.27034 5.81774 0.00370523 8.87063 0 12.055C0 16.942 3.548 21.001 7.306 25.296C8.495 26.656 9.726 28.063 10.822 29.487C10.9621 29.6692 11.1422 29.8167 11.3483 29.9182C11.5545 30.0197 11.7812 30.0725 12.011 30.0725C12.2408 30.0725 12.4675 30.0197 12.6737 29.9182C12.8798 29.8167 13.0599 29.6692 13.2 29.487C14.3 28.064 15.527 26.657 16.716 25.296C20.474 20.996 24.022 16.942 24.022 12.055C24.0183 8.87063 22.7517 5.81774 20.5 3.56604C18.2483 1.31434 15.1954 0.0477116 12.011 0.0440063ZM12.011 16.56C11.121 16.56 10.251 16.2961 9.51093 15.8016C8.77091 15.3072 8.19414 14.6043 7.85354 13.7821C7.51295 12.9598 7.42383 12.055 7.59747 11.1821C7.7711 10.3092 8.19968 9.50736 8.82902 8.87803C9.45836 8.24869 10.2602 7.82011 11.1331 7.64647C12.006 7.47284 12.9108 7.56195 13.7331 7.90255C14.5553 8.24314 15.2581 8.81992 15.7526 9.55994C16.2471 10.3 16.511 11.17 16.511 12.06C16.511 12.651 16.3946 13.2361 16.1685 13.7821C15.9423 14.328 15.6108 14.8241 15.193 15.242C14.7751 15.6599 14.279 15.9913 13.7331 16.2175C13.1871 16.4436 12.6019 16.56 12.011 16.56Z" fill="#FF2424"/>
</svg>
