<svg width="22" height="22" viewBox="0 0 22 22" fill="none" xmlns="http://www.w3.org/2000/svg">
<g clip-path="url(#clip0_503_434)">
<path d="M7.83821 2.47506C9.73445 1.82441 11.7963 1.84261 13.6808 2.52662C14.7158 2.91389 15.6642 3.50179 16.4715 4.25657C16.1972 4.54947 15.9076 4.82371 15.6279 5.10893C15.0962 5.63987 14.5646 6.16898 14.0329 6.69627C13.505 6.19064 12.8664 5.81504 12.168 5.59928C11.2709 5.32785 10.3163 5.30906 9.40921 5.54498C8.50211 5.7809 7.67763 6.26239 7.02644 6.93651C6.45814 7.51423 6.02766 8.21284 5.7671 8.98019L2.9248 6.77964C3.94226 4.76178 5.70406 3.21828 7.83821 2.47506Z" fill="#E33629"/>
<path d="M2.17012 8.95925C2.32278 8.20226 2.57625 7.46916 2.92375 6.77954L5.76714 8.98558C5.39526 10.0807 5.39526 11.268 5.76714 12.3632C4.82007 13.0945 3.87228 13.8295 2.92375 14.5681C2.05351 12.8354 1.78821 10.8613 2.17012 8.96035V8.95925Z" fill="#F8BD00"/>
<path d="M10.6729 9.04932H18.8344C19.1145 10.5817 19.0394 12.1578 18.615 13.6567C18.2246 15.0342 17.4661 16.2793 16.4211 17.2581C15.4996 16.5395 14.5814 15.8287 13.6643 15.1135C14.1191 14.8066 14.5072 14.411 14.8054 13.9505C15.1036 13.49 15.3058 12.974 15.3998 12.4335H10.6729C10.6729 11.3065 10.6729 10.1785 10.6729 9.04932Z" fill="#587DBD"/>
<path d="M2.92236 14.5682C3.87308 13.8369 4.82052 13.1019 5.76466 12.3633C6.13099 13.4388 6.82785 14.371 7.75569 15.0268C8.33436 15.4358 8.99189 15.7197 9.68638 15.8605C10.3705 15.9876 11.0723 15.9876 11.7564 15.8605C12.441 15.7457 13.0938 15.4885 13.6728 15.1057C14.5899 15.821 15.5114 16.5318 16.4285 17.2471C15.4232 18.1608 14.1976 18.7974 12.872 19.0944C11.4108 19.4378 9.8881 19.4212 8.43472 19.0461C7.28528 18.7394 6.21158 18.1987 5.28088 17.4577C4.29583 16.6756 3.49132 15.69 2.92236 14.5682Z" fill="#319F43"/>
</g>
<defs>
<clipPath id="clip0_503_434">
<rect width="17" height="17.3412" fill="white" transform="translate(2 2)"/>
</clipPath>
</defs>
</svg>
