<svg xmlns="http://www.w3.org/2000/svg" xmlns:xlink="http://www.w3.org/1999/xlink" width="24" height="25.455" viewBox="0 0 24 25.455">
  <defs>
    <clipPath id="clip-Artboard_1">
      <rect width="24" height="25.455"/>
    </clipPath>
  </defs>
  <g id="Artboard_1" data-name="Artboard – 1" clip-path="url(#clip-Artboard_1)">
    <path id="_7296078bcc77045d4d9b9d04da88f73a" data-name="7296078bcc77045d4d9b9d04da88f73a" d="M7.333,20.73V17.345a1.566,1.566,0,0,1,1.561-1.56h3.172a1.566,1.566,0,0,1,1.571,1.56h0V20.72a1.359,1.359,0,0,0,1.354,1.354h2.164a3.819,3.819,0,0,0,2.7-1.1A3.764,3.764,0,0,0,20.971,18.3V8.682a2.729,2.729,0,0,0-.988-2.1L12.63.744A3.438,3.438,0,0,0,8.262.823L1.067,6.582A2.731,2.731,0,0,0,0,8.682v9.605a3.8,3.8,0,0,0,3.815,3.787H5.93a1.359,1.359,0,0,0,.964-.39,1.339,1.339,0,0,0,.4-.954Z" transform="translate(1.515 1.69)" fill="#121212"/>
  </g>
</svg>
