<svg xmlns="http://www.w3.org/2000/svg" width="17.65" height="18.615" viewBox="0 0 17.65 18.615">
  <path id="_7296078bcc77045d4d9b9d04da88f73a" data-name="7296078bcc77045d4d9b9d04da88f73a" d="M5.647,15.965V13.358a1.206,1.206,0,0,1,1.2-1.2H9.293a1.206,1.206,0,0,1,1.21,1.2h0v2.6A1.046,1.046,0,0,0,11.545,17h1.667a2.941,2.941,0,0,0,2.077-.849,2.9,2.9,0,0,0,.861-2.06v-7.4a2.1,2.1,0,0,0-.761-1.617L9.726.573a2.648,2.648,0,0,0-3.364.06L.822,5.069A2.1,2.1,0,0,0,0,6.686v7.4A2.927,2.927,0,0,0,2.938,17H4.566a1.047,1.047,0,0,0,.742-.3,1.031,1.031,0,0,0,.308-.735Z" transform="translate(0.75 0.866)" fill="none" stroke="#fff" stroke-width="1.5"/>
</svg>
