<svg xmlns="http://www.w3.org/2000/svg" width="19" height="18.114" viewBox="0 0 19 18.114">
  <path id="_3c88dbdf1c4b6f9e14b81a26ec7d7c18" data-name="3c88dbdf1c4b6f9e14b81a26ec7d7c18" d="M20.985,9.712a.889.889,0,0,0-.759-1.044l-5.411-.759L12.347,2.973a.741.741,0,0,0-.38-.38.961.961,0,0,0-1.329.38L8.265,7.909l-5.411.759a.574.574,0,0,0-.57.285.918.918,0,0,0,0,1.329l3.892,3.8L5.228,19.49a1.2,1.2,0,0,0,.095.57.961.961,0,0,0,1.329.38l4.841-2.563,4.841,2.563a.711.711,0,0,0,.475.095H17a.985.985,0,0,0,.759-1.139l-.949-5.411,3.892-3.8A.522.522,0,0,0,20.985,9.712Z" transform="translate(-2 -2.459)" fill="#121212"/>
</svg>
