<svg xmlns="http://www.w3.org/2000/svg" width="14.494" height="14.494" viewBox="0 0 14.494 14.494">
  <path id="_773c35cb5b500c4739e94401d758130a" data-name="773c35cb5b500c4739e94401d758130a" d="M7.249,0h0A7.243,7.243,0,0,0,1.38,11.495l-.9,2.692,2.786-.89A7.246,7.246,0,1,0,7.249,0Zm4.217,10.234a2.045,2.045,0,0,1-1.422,1.023c-.379.081-.873.145-2.538-.545A9.079,9.079,0,0,1,3.9,7.524a4.139,4.139,0,0,1-.861-2.186,2.314,2.314,0,0,1,.741-1.764,1.053,1.053,0,0,1,.741-.26c.09,0,.17,0,.243.008.213.009.32.022.46.358.175.421.6,1.461.651,1.568a.431.431,0,0,1,.031.392,1.252,1.252,0,0,1-.235.332c-.107.123-.208.217-.315.35-.1.115-.208.238-.085.451A6.433,6.433,0,0,0,6.444,8.235a5.328,5.328,0,0,0,1.7,1.048A.458.458,0,0,0,8.655,9.2a8.768,8.768,0,0,0,.566-.75.4.4,0,0,1,.52-.158c.2.068,1.231.58,1.444.686s.353.158.4.247A1.8,1.8,0,0,1,11.466,10.234Z"/>
</svg>
